<svg version="1.1" viewBox="0 0 4845.3 575.5">
  <g>
    <path d="M573.4,497.2c0,2.8-0.7,4.2-2.1,4.2h-77.6c-7.4,0-13.6,0.2-18.7,0.7c-5.1,0.4-9.3,0.7-12.5,0.7   c-7.4,0-13.8-1.7-19.1-5.2c-5.3-3.5-11.8-9.8-19.4-19c-7.6-9.2-21.1-27-40.5-53.4c-2.3-3.2-5-6.8-8-10.7c-3-3.9-6.4-8.4-10.1-13.5   l-90.8-122l-15.2,15.2v151.1c0,14.3,1.1,24.7,3.5,31.2s6.8,10.9,13.5,13.2c6.7,2.3,17.4,3.5,32.2,3.5c1.8,0,2.8,1.4,2.8,4.2   c0,2.8-0.9,4.2-2.8,4.2c-15.2,0-27.3-0.2-36-0.7l-52-0.7l-51.3,0.7c-9.2,0.5-21.7,0.7-37.4,0.7c-0.9,0-1.4-1.4-1.4-4.2   c0-2.8,0.4-4.2,1.4-4.2c14.8,0,25.6-1.2,32.6-3.5c6.9-2.3,11.7-6.8,14.2-13.5c2.5-6.7,3.8-17,3.8-30.8V124.4   c0-13.8-1.3-24-3.8-30.5c-2.5-6.5-7.2-11-13.9-13.5c-6.7-2.5-17.2-3.8-31.5-3.8c-1.4,0-2.1-1.4-2.1-4.2s0.7-4.2,2.1-4.2l36.7,0.7   c21.2,0.9,38.1,1.4,50.6,1.4c13.9,0,31.4-0.5,52.7-1.4l35.3-0.7c1.4,0,2.1,1.4,2.1,4.2s-0.7,4.2-2.1,4.2c-14.3,0-24.8,1.4-31.5,4.2   c-6.7,2.8-11.3,7.5-13.9,14.2c-2.5,6.7-3.8,17-3.8,30.8v146.9l130.3-133c13.4-13.4,20.1-25.6,20.1-36.7c0-8.3-3.7-14.8-11.1-19.4   c-7.4-4.6-17.8-6.9-31.2-6.9c-1.4,0-2.1-1.4-2.1-4.2s0.7-4.2,2.1-4.2l32.6,0.7c20.3,0.9,39.3,1.4,56.8,1.4   c18.9,0,38.6-0.5,58.9-1.4l31.2-0.7c1.4,0,2.1,1.4,2.1,4.2s-0.7,4.2-2.1,4.2c-21.2,0-44.6,6.1-70,18.4   c-25.4,12.3-48.5,28.5-69.3,48.8l-78.3,79.7L432,362.1c30,43,52.5,73.3,67.6,91.1c15,17.8,27.1,28.9,36.4,33.3   c9.2,4.4,21,6.6,35.3,6.6C572.7,493.1,573.4,494.4,573.4,497.2z" class="st0"></path>
    <path d="M1054.9,72.5c0,2.8-0.5,4.2-1.4,4.2c-14.3,0-31.9,8.9-52.7,26.7s-39.3,40.1-55.4,66.9l-72.1,120.6v154.5   c0,14.3,1.1,24.7,3.5,31.2c2.3,6.5,6.8,10.9,13.5,13.2c6.7,2.3,17.4,3.5,32.2,3.5c1.4,0,2.1,1.4,2.1,4.2c0,2.8-0.7,4.2-2.1,4.2   c-15.2,0-27.3-0.2-36-0.7l-52-0.7l-51.3,0.7c-9.2,0.5-21.7,0.7-37.4,0.7c-0.9,0-1.4-1.4-1.4-4.2c0-2.8,0.4-4.2,1.4-4.2   c14.8,0,25.6-1.2,32.6-3.5c6.9-2.3,11.7-6.8,14.2-13.5c2.5-6.7,3.8-17,3.8-30.8v-140L695.3,148c-17.1-26.8-31.3-45.4-42.6-55.8   S631.8,76.6,624,76.6c-1.4,0-2.1-1.4-2.1-4.2s0.7-4.2,2.1-4.2l21.5,0.7c10.2,0.9,17.3,1.4,21.5,1.4c16.2,0,39.5-0.5,70-1.4   l45.7-0.7c0.9,0,1.4,1.4,1.4,4.2s-0.5,4.2-1.4,4.2c-7.9,0-14,1.9-18.4,5.5c-4.4,3.7-6.6,8.6-6.6,14.6c0,7.4,3.2,16.2,9.7,26.3   l94.9,149.7l63.7-108.8c12.5-20.8,18.7-38.6,18.7-53.4c0-11.1-3.4-19.5-10-25.3c-6.7-5.8-16.3-8.7-28.8-8.7c-1.4,0-2.1-1.4-2.1-4.2   s0.7-4.2,2.1-4.2l36.7,0.7c21.2,0.9,40.2,1.4,56.8,1.4c7.9,0,17.3-0.5,28.4-1.4l25.6-0.7C1054.5,68.3,1054.9,69.7,1054.9,72.5z" class="st0"></path>
    <path d="M1266.2,442.5c0,12,0.9,20.7,2.8,26c1.8,5.3,5.4,8.9,10.7,10.7c5.3,1.9,14,2.8,26,2.8h23.6   c36,0,67.2-9.6,93.5-28.8c26.3-19.2,43.9-45.1,52.7-77.9c0-0.9,0.9-1.4,2.8-1.4c0.9,0,2,0.4,3.1,1c1.1,0.7,1.7,1.3,1.7,1.7   c-4.2,45.7-6.2,83.8-6.2,114.3c0,3.7-0.8,6.4-2.4,8s-4.3,2.4-8,2.4h-327c-0.9,0-1.4-1.4-1.4-4.2c0-2.8,0.4-4.2,1.4-4.2   c14.8,0,25.5-1.2,32.2-3.5c6.7-2.3,11.3-6.8,13.9-13.5c2.5-6.7,3.8-17,3.8-30.8V124.4c0-13.8-1.3-24-3.8-30.5   c-2.5-6.5-7.3-11-14.2-13.5c-6.9-2.5-17.6-3.8-31.9-3.8c-0.9,0-1.4-1.4-1.4-4.2s0.4-4.2,1.4-4.2l35.3,0.7   c21.2,0.9,38.8,1.4,52.7,1.4c13.9,0,31.4-0.5,52.7-1.4l35.3-0.7c1.4,0,2.1,1.4,2.1,4.2s-0.7,4.2-2.1,4.2c-14.3,0-25,1.3-31.9,3.8   c-6.9,2.5-11.6,7.2-13.9,13.8c-2.3,6.7-3.5,17-3.5,30.8V442.5z" class="st0"></path>
    <path d="M1912,389.8c1.4,0,2.7,0.3,3.8,1c1.1,0.7,1.7,1.3,1.7,1.7c-4.6,36-6.9,68.8-6.9,98.4c0,3.7-0.7,6.4-2.1,8   c-1.4,1.6-4.2,2.4-8.3,2.4H1594c-1.4,0-2.1-1.4-2.1-4.2c0-2.8,0.7-4.2,2.1-4.2c14.8,0,25.5-1.2,32.2-3.5   c6.7-2.3,11.2-6.8,13.5-13.5c2.3-6.7,3.5-17,3.5-30.8V124.4c0-13.8-1.2-24-3.5-30.5c-2.3-6.5-6.9-11-13.9-13.5   c-6.9-2.5-17.6-3.8-31.9-3.8c-1.4,0-2.1-1.4-2.1-4.2s0.7-4.2,2.1-4.2h293.8c4.6,0,6.9,2.1,6.9,6.2l1.4,92.1c0,0.9-1.3,1.6-3.8,2.1   c-2.5,0.5-4,0-4.5-1.4c-7.4-26.8-19.9-46.6-37.4-59.6c-17.6-12.9-40.6-19.4-69.3-19.4h-20.8c-13.9,0-24,3-30.5,9   c-6.5,6-9.7,15.2-9.7,27.7v141.3h57.5c26.8,0,47.3-4.6,61.7-13.8c14.3-9.2,21.5-22.2,21.5-38.8c0-1.4,1.3-2.1,3.8-2.1   c2.5,0,3.8,0.7,3.8,2.1l-0.7,62.4l0.7,33.3c0.9,15.7,1.4,28.2,1.4,37.4c0,0.9-1.4,1.4-4.2,1.4c-2.8,0-4.2-0.4-4.2-1.4   c0-18.9-7.3-33.8-21.8-44.7c-14.6-10.9-35.5-16.3-62.7-16.3h-56.8v156.6c0,13.4,2.5,23.3,7.6,29.8s13.2,9.7,24.3,9.7h22.9   c36,0,64.9-7.4,86.6-22.2c21.7-14.8,37.6-37.7,47.8-68.6C1909.2,390.3,1910.2,389.8,1912,389.8z" class="st0"></path>
    <path d="M2618.1,65.9c22.2,3.5,39.5,8,52,13.5c4.2,1.4,6.8,3.1,8,5.2c1.1,2.1,2.2,5.7,3.1,10.7l8.3,96.3   c0,1.4-1.2,2.3-3.5,2.8c-2.3,0.5-3.7-0.2-4.2-2.1c-15.7-36.5-36.7-64.7-63.1-84.5C2592.4,88,2561.9,78,2527.3,78   c-45.7,0-81.1,16.9-106,50.6c-24.9,33.7-37.4,79-37.4,135.8c0,42.5,6.8,81.3,20.4,116.4c13.6,35.1,32.8,63,57.5,83.5   c24.7,20.6,52.8,30.8,84.2,30.8c29.6,0,56-9.8,79.3-29.5c23.3-19.6,44.2-49.5,62.7-89.7c0.4-1.8,2-2.5,4.5-2.1   c2.5,0.5,3.8,1.4,3.8,2.8l-10.4,94.2c-0.9,5.6-2,9.1-3.1,10.8c-1.2,1.6-3.8,3.4-8,5.2c-41.1,15.2-83.4,22.9-126.8,22.9   c-56.4,0-103.5-11.2-141.3-33.6c-37.9-22.4-65.7-50.8-83.5-85.2c-17.8-34.4-26.7-70.3-26.7-107.8c0-43.9,11.9-82.7,35.7-116.4   c23.8-33.7,55.4-59.8,94.9-78.3c39.5-18.5,81.8-27.7,127.1-27.7C2574.6,60.7,2595.9,62.4,2618.1,65.9z" class="st0"></path>
    <path d="M3254.1,497.2c0,2.8-1.2,4.2-3.5,4.2c-9.3,0-23.6-0.5-43-1.4c-20.3-0.9-34.9-1.4-43.6-1.4   c-11.6,0-25.6,0.5-42.3,1.4c-15.7,0.9-28.2,1.4-37.4,1.4c-1.9,0-2.8-1.4-2.8-4.2c0-2.8,0.9-4.2,2.8-4.2c12,0,20.7-1.3,26-3.8   c5.3-2.5,8-7,8-13.5c0-7.9-4.6-21-13.8-39.5l-72.1-142h-123.3L2859.9,403c-6,13.4-9,25.9-9,37.4c0,16.6,5.9,29.6,17.7,38.8   c11.8,9.3,27.6,13.9,47.5,13.9c2.3,0,3.5,1.4,3.5,4.2c0,2.8-1.2,4.2-3.5,4.2c-8.3,0-20.3-0.5-36-1.4c-17.5-0.9-32.8-1.4-45.7-1.4   c-12.5,0-27.5,0.5-45,1.4c-15.7,0.9-28.4,1.4-38.1,1.4c-1.8,0-2.8-1.4-2.8-4.2c0-2.8,0.9-4.2,2.8-4.2c12.9,0,23.8-2.7,32.6-8   c8.8-5.3,17.5-14.8,26.3-28.4s19.2-33.8,31.2-60.6l150.3-330.5c0.9-1.4,3-2.1,6.3-2.1c3.7,0,5.8,0.7,6.2,2.1l173.2,340.9   c16.1,32.8,29.6,55.4,40.2,67.9c10.6,12.5,21.7,18.7,33.3,18.7C3252.9,493.1,3254.1,494.4,3254.1,497.2z M3022.7,274.8l-55.4-109.5   L2918,274.8H3022.7z" class="st0"></path>
    <path d="M3707.3,72.5c0,2.8-0.7,4.2-2.1,4.2c-16.6,0-32.6,7.4-47.8,22.2c-15.2,14.8-27.5,34.6-36.7,59.6l-128.2,342.3   c-0.5,1.8-3,2.8-7.6,2.8c-4.6,0-7.2-0.9-7.6-2.8l-176.7-374.8c-8.3-16.6-16.6-29-24.9-37.1c-8.3-8.1-17.5-12.1-27.7-12.1   c-1.4,0-2.1-1.4-2.1-4.2s0.7-4.2,2.1-4.2c6.9,0,11.8,0.2,14.5,0.7c9.3,0.9,21.2,1.4,36,1.4c39.7,0,73.5-0.5,101.2-1.4   c7.4-0.5,16.6-0.7,27.7-0.7c1.4,0,2.1,1.4,2.1,4.2s-0.7,4.2-2.1,4.2c-13.8,0-24.6,2.9-32.2,8.7c-7.6,5.8-11.4,14-11.4,24.6   c0,7.9,2.5,17.3,7.6,28.4L3511.2,394l90.1-237.7c4.6-12.9,6.9-24,6.9-33.3c0-14.3-4.3-25.6-12.8-34s-20.9-12.5-37.1-12.5   c-1.4,0-2.1-1.4-2.1-4.2s0.7-4.2,2.1-4.2l34,0.7c19.4,0.9,36.7,1.4,52,1.4c8.8,0,19.6-0.5,32.6-1.4l28.4-0.7   C3706.6,68.3,3707.3,69.7,3707.3,72.5z" class="st0"></path>
    <path d="M4174.9,497.2c0,2.8-1.2,4.2-3.5,4.2c-9.3,0-23.6-0.5-43-1.4c-20.3-0.9-34.9-1.4-43.6-1.4   c-11.6,0-25.6,0.5-42.3,1.4c-15.7,0.9-28.2,1.4-37.4,1.4c-1.9,0-2.8-1.4-2.8-4.2c0-2.8,0.9-4.2,2.8-4.2c12,0,20.7-1.3,26-3.8   c5.3-2.5,8-7,8-13.5c0-7.9-4.6-21-13.8-39.5l-72.1-142h-123.3L3780.7,403c-6,13.4-9,25.9-9,37.4c0,16.6,5.9,29.6,17.7,38.8   c11.8,9.3,27.6,13.9,47.5,13.9c2.3,0,3.5,1.4,3.5,4.2c0,2.8-1.2,4.2-3.5,4.2c-8.3,0-20.3-0.5-36-1.4c-17.5-0.9-32.8-1.4-45.7-1.4   c-12.5,0-27.5,0.5-45,1.4c-15.7,0.9-28.4,1.4-38.1,1.4c-1.8,0-2.8-1.4-2.8-4.2c0-2.8,0.9-4.2,2.8-4.2c12.9,0,23.8-2.7,32.6-8   c8.8-5.3,17.5-14.8,26.3-28.4s19.2-33.8,31.2-60.6l150.3-330.5c0.9-1.4,3-2.1,6.3-2.1c3.7,0,5.8,0.7,6.2,2.1L4098,406.4   c16.1,32.8,29.6,55.4,40.2,67.9c10.6,12.5,21.7,18.7,33.3,18.7C4173.8,493.1,4174.9,494.4,4174.9,497.2z M3943.5,274.8l-55.4-109.5   l-49.2,109.5H3943.5z" class="st0"></path>
    <path d="M4714.7,72.5c0,2.8-0.5,4.2-1.4,4.2c-18.5,0-33,7.3-43.6,21.8c-10.6,14.5-15.9,34.1-15.9,58.6v354.8   c0,1.4-1,2.3-3.1,2.8c-2.1,0.5-3.6,0.2-4.5-0.7l-325-370v269.5c0,24.5,5.1,43.9,15.2,58.2c10.2,14.3,24.3,21.5,42.3,21.5   c0.9,0,1.4,1.4,1.4,4.2c0,2.8-0.5,4.2-1.4,4.2c-12.9,0-22.9-0.2-29.8-0.7l-37.4-0.7l-43,0.7c-7.9,0.5-19.2,0.7-33.9,0.7   c-1.4,0-2.1-1.4-2.1-4.2c0-2.8,0.7-4.2,2.1-4.2c20.3,0,36.4-7.2,48.1-21.5c11.8-14.3,17.7-33.7,17.7-58.2V120.3   c-15.2-16.6-28.3-28.1-39.1-34.3c-10.9-6.2-22.1-9.4-33.6-9.4c-0.9,0-1.4-1.4-1.4-4.2s0.5-4.2,1.4-4.2l29.1,0.7   c6,0.5,14.8,0.7,26.3,0.7l52.7-0.7c6.5-0.5,14.3-0.7,23.5-0.7c3.7,0,6.5,0.9,8.3,2.8c1.8,1.8,5.1,5.8,9.7,11.8   c7.9,10.6,13.4,17.8,16.6,21.5l239.7,276.5V157c0-24.9-5.1-44.6-15.2-58.9c-10.2-14.3-24.3-21.5-42.3-21.5c-0.9,0-1.4-1.4-1.4-4.2   s0.5-4.2,1.4-4.2l29.8,0.7c14.8,0.9,27.2,1.4,37.4,1.4c9.2,0,22.2-0.5,38.8-1.4l31.2-0.7C4714.2,68.3,4714.7,69.7,4714.7,72.5z" class="st0"></path>
  </g>
</svg>